<?xml version="1.0" encoding="utf-8"?>
<!-- Generator: Adobe Illustrator 22.1.0, SVG Export Plug-In . SVG Version: 6.00 Build 0)  -->
<svg version="1.1" id="Layer_1" xmlns="http://www.w3.org/2000/svg" xmlns:xlink="http://www.w3.org/1999/xlink" x="0px" y="0px"
	 viewBox="0 0 138 48" style="enable-background:new 0 0 138 48;" xml:space="preserve">
<style type="text/css">
	.st0{fill:#FFFFFF;}
</style>
<g>
	<path class="st0" d="M25,18.9c0,2.4-0.8,4.2-3.3,4.9c2.6,0.1,3.7,2.1,3.7,4.2v12.3c0,5.2-2,7.3-7.4,7.3H0.8V0.1h18.6
		c3.7,0,5.6,2.3,5.6,5.8V18.9z M10.3,8.4v12.5h4.5c0.7,0,1.2-0.4,1.2-1.2V9.3c0-0.6-0.2-0.9-0.9-0.9H10.3z M16,29.4
		c0-1-0.6-1.4-1.4-1.4h-4.3v11.2H15c0.8,0,1-0.3,1-1V29.4z"/>
	<path class="st0" d="M37.9,41.7L37,47.6h-9.6L36,0.1h10.2l8.6,47.5h-9.6l-0.9-5.9H37.9z M38.9,34.2h4.4l-2.2-16.8L38.9,34.2z"/>
	<path class="st0" d="M57.4,0.1h9l4.9,19.1V0.1h9.8v47.5h-9.8l-5.1-19.9v19.9h-8.8V0.1z"/>
	<path class="st0" d="M109.2,40.3c0,5.2-2,7.3-7.4,7.3H85V0.1h18.6c3.7,0,5.6,2.3,5.6,5.8V40.3z M94.4,8.4v30.9h4.5
		c0.8,0,0.9-0.3,0.9-1v-29c0-0.6-0.2-0.9-0.9-0.9H94.4z"/>
	<path class="st0" d="M137.8,40.9c0,3.6-1.5,6.8-6.8,6.8h-11c-5.3,0-6.8-3.1-6.8-6.8V6.2c0-3.7,2-6.2,6.4-6.2h11.8
		c4.5,0,6.4,2.4,6.4,6.2V40.9z M123.6,8.4c-0.7,0-0.9,0.3-0.9,0.9v29c0,0.7,0.1,1,0.9,1h3.6c0.8,0,0.9-0.3,0.9-1v-29
		c0-0.6-0.2-0.9-0.9-0.9H123.6z"/>
</g>
<g>
</g>
<g>
</g>
<g>
</g>
<g>
</g>
<g>
</g>
<g>
</g>
</svg>
